<svg xmlns="http://www.w3.org/2000/svg" xmlns:svg="http://www.w3.org/2000/svg" xmlns:xlink="http://www.w3.org/1999/xlink" id="svg3089" width="48" height="48" version="1.0"><defs id="defs3091"><linearGradient id="linearGradient2982"><stop style="stop-color:#8db1d8;stop-opacity:1" id="stop2984" offset="0"/><stop style="stop-color:#3465a4;stop-opacity:1" id="stop2986" offset="1"/></linearGradient><linearGradient id="linearGradient1979" x1="40.417" x2="46.404" y1="1.914" y2="9.294" gradientTransform="scale(1.032655,0.968377)" gradientUnits="userSpaceOnUse" xlink:href="#linearGradient2982"/><linearGradient id="linearGradient2854"><stop style="stop-color:#fff;stop-opacity:1" id="stop2856" offset="0"/><stop style="stop-color:#fff;stop-opacity:0" id="stop2858" offset="1"/></linearGradient><linearGradient id="linearGradient2860" x1="27.625" x2="27.363" y1="23.25" y2=".5" gradientTransform="translate(-60,1)" gradientUnits="userSpaceOnUse" xlink:href="#linearGradient2854"/><linearGradient id="linearGradient2862"><stop style="stop-color:#fff;stop-opacity:1" id="stop2864" offset="0"/><stop style="stop-color:#fff;stop-opacity:0" id="stop2866" offset="1"/></linearGradient><linearGradient id="linearGradient2868" x1="14" x2="20.637" y1="34" y2="8.25" gradientTransform="translate(-60,1)" gradientUnits="userSpaceOnUse" xlink:href="#linearGradient2862"/><linearGradient id="linearGradient2921"><stop style="stop-color:#fff;stop-opacity:1" id="stop2923" offset="0"/><stop style="stop-color:#fff;stop-opacity:0" id="stop2925" offset="1"/></linearGradient><linearGradient id="linearGradient2927" x1="23.276" x2="16.775" y1="21.038" y2="5.256" gradientTransform="translate(-60,1)" gradientUnits="userSpaceOnUse" xlink:href="#linearGradient2921"/><linearGradient id="linearGradient2986"><stop style="stop-color:#a40000;stop-opacity:1" id="stop2988" offset="0"/><stop style="stop-color:#690000;stop-opacity:1" id="stop2990" offset="1"/></linearGradient><linearGradient id="linearGradient2892" x1="41.185" x2="43.332" y1="16.25" y2="37.5" gradientTransform="translate(-60,1)" gradientUnits="userSpaceOnUse" xlink:href="#linearGradient2986"/><linearGradient id="linearGradient2788"><stop style="stop-color:#f67f7f;stop-opacity:1" id="stop2790" offset="0"/><stop style="stop-color:#ef2929;stop-opacity:1" id="stop2792" offset="1"/></linearGradient><linearGradient id="linearGradient2884" x1="27.763" x2="24" y1="71.519" y2="21.605" gradientTransform="translate(-60,1)" gradientUnits="userSpaceOnUse" xlink:href="#linearGradient2788"/><linearGradient id="linearGradient1981" x1="32.875" x2="31.592" y1="13.156" y2="5.714" gradientUnits="userSpaceOnUse" xlink:href="#linearGradient2967"/><linearGradient id="linearGradient2967"><stop style="stop-color:#729fcf;stop-opacity:1" id="stop2969" offset="0"/><stop style="stop-color:#fff;stop-opacity:1" id="stop2971" offset="1"/></linearGradient><linearGradient id="linearGradient2900" x1="17.764" x2="16" y1="4.502" y2="-1.701" gradientTransform="translate(-57,26)" gradientUnits="userSpaceOnUse" xlink:href="#linearGradient2967"/><linearGradient id="linearGradient2891"><stop style="stop-color:#000;stop-opacity:1" id="stop2893" offset="0"/><stop style="stop-color:#000;stop-opacity:0" id="stop2895" offset="1"/></linearGradient><radialGradient id="radialGradient2896" cx="11" cy="19" r="10.5" fx="11" fy="19" gradientTransform="matrix(1,0,0,0.238095,0,14.47619)" gradientUnits="userSpaceOnUse" xlink:href="#linearGradient2891"/></defs><g id="layer1"><g id="g2013" transform="translate(60,-1.000007)"><path style="opacity:.3;fill:url(#radialGradient2896);fill-opacity:1;stroke:none;stroke-width:1;stroke-linecap:round;stroke-linejoin:round;stroke-miterlimit:4;stroke-dasharray:none;stroke-dashoffset:0;stroke-opacity:1" id="path2894" d="M 21.5 19 A 10.5 2.5 0 1 1 0.5,19 A 10.5 2.5 0 1 1 21.5 19 z" transform="matrix(2.095238,0,0,2.6,-59.04762,-7.899993)"/><path style="fill:url(#linearGradient2900);fill-opacity:1;stroke:#1a3e71;stroke-width:1;stroke-linecap:round;stroke-linejoin:miter;stroke-miterlimit:4;stroke-dasharray:none;stroke-dashoffset:0;stroke-opacity:1" id="path2898" d="M -40.5,26.5 L -40.5,28.5 L -38.5,28.5 L -40.5,31 L -40.5,32.5 L -35.5,32.5 L -35.5,30.5 L -37.5,30.5 L -35.5,28 L -35.5,26.5 L -40.5,26.5 z"/><g id="g1975" transform="translate(-64,7)"><path style="font-size:11.05665684px;font-style:normal;font-weight:700;fill:#729fcf;fill-opacity:1;stroke:#1a3e71;stroke-width:2;stroke-linecap:butt;stroke-linejoin:miter;stroke-miterlimit:4;stroke-dasharray:none;stroke-opacity:1;font-family:Bitstream Vera Sans Mono" id="path2946" d="M 31,9 L 35.999995,9.000002 L 35.999995,10.053574 L 32.79543,14 L 36,14 L 35.999995,15.000004 L 30.999995,15.000004 L 31,13.946429 L 34.210006,10.000002 L 31,10 L 31,9"/><path style="font-size:11.05665684px;font-style:normal;font-weight:700;fill:url(#linearGradient1981);fill-opacity:1;stroke:none;stroke-width:1px;stroke-linecap:butt;stroke-linejoin:miter;stroke-opacity:1;font-family:Bitstream Vera Sans Mono" id="text2929" d="M 31,9 L 35.999995,9.000002 L 35.999995,10.053574 L 32.79543,14 L 36,14 L 35.999995,15.000004 L 30.999995,15.000004 L 31,13.946429 L 34.210006,10.000002 L 31,10 L 31,9"/></g><path style="opacity:1;fill:url(#linearGradient2884);fill-opacity:1;stroke:url(#linearGradient2892);stroke-width:1;stroke-linecap:square;stroke-linejoin:round;stroke-miterlimit:4;stroke-dasharray:none;stroke-dashoffset:0;stroke-opacity:1" id="path1937" d="M -36,3.5 C -47.315997,3.5 -56.5,12.683996 -56.5,24 C -56.5,35.316004 -47.315998,44.5 -36,44.5 C -24.684003,44.5 -15.5,35.316004 -15.5,24 C -15.5,12.683996 -24.684003,3.5 -36,3.5 z M -36,10.5 C -28.547988,10.5 -22.5,16.547989 -22.5,24 C -22.499999,26.460112 -23.161315,28.763003 -24.3125,30.75 L -42.75,12.3125 C -40.763003,11.161315 -38.460112,10.5 -36,10.5 z M -47.6875,17.25 L -29.25,35.6875 C -31.236997,36.838685 -33.539888,37.5 -36,37.5 C -43.452011,37.499999 -49.5,31.452011 -49.5,24 C -49.5,21.539888 -48.838685,19.236997 -47.6875,17.25 z"/><path style="opacity:.25;fill:url(#linearGradient2927);fill-opacity:1;stroke:none;stroke-width:1;stroke-linecap:square;stroke-linejoin:round;stroke-miterlimit:4;stroke-dasharray:none;stroke-dashoffset:0;stroke-opacity:1" id="path2912" d="M -36,4 C -47.046768,4 -56,12.953225 -56,24 C -56,24.959954 -55.943218,25.888666 -55.8125,26.8125 C -54.026413,29.505858 -51.431424,30.500603 -48.40625,30.5 C -49.431719,28.554625 -50,26.34827 -50,24 C -50,21.450714 -49.318348,19.059772 -48.125,17 C -48.047062,16.861595 -47.907735,16.76871 -47.75,16.75 C -47.597778,16.736961 -47.448002,16.794567 -47.34375,16.90625 L -36.75,27.5 C -34.723835,26.67689 -32.744082,25.818859 -30.78125,24.96875 L -43.09375,12.65625 C -43.203339,12.54817 -43.268339,12.402822 -43.25,12.25 C -43.231662,12.097178 -43.132048,11.954083 -43,11.875 C -40.940228,10.681652 -38.549286,10 -36,10 C -29.035568,9.9999996 -23.255791,15.113784 -22.1875,21.78125 C -19.53273,21.146135 -17.397421,21.224034 -16.0625,22.59375 C -16.786977,12.20618 -25.428066,4 -36,4 z"/><path style="opacity:.7;fill:none;fill-opacity:1;stroke:#fff;stroke-width:1.00000048;stroke-linecap:square;stroke-linejoin:round;stroke-miterlimit:4;stroke-dasharray:none;stroke-dashoffset:0;stroke-opacity:1" id="path2841" d="M -35.999988,4.500001 C -46.763991,4.500001 -55.499998,13.236002 -55.499998,24.000011 C -55.499998,34.76402 -46.763992,43.500021 -35.999988,43.500021 C -25.235985,43.500021 -16.499978,34.76402 -16.499978,24.000011 C -16.499978,13.236002 -25.235985,4.500001 -35.999988,4.500001 z"/><path style="opacity:.7;fill:none;fill-opacity:1;stroke:url(#linearGradient2868);stroke-width:1;stroke-linecap:square;stroke-linejoin:round;stroke-miterlimit:4;stroke-dashoffset:0;stroke-opacity:1" id="path2847" d="M -47.84375,16.25 C -47.523667,16.195406 -47.197077,16.300381 -46.96875,16.53125 L -28.53125,34.96875 C -28.302052,35.189305 -28.192078,35.506125 -28.23533,35.821254 C -28.278583,36.136382 -28.469853,36.411855 -28.75,36.5625 C -30.882548,37.798011 -33.361541,38.5 -36,38.5 C -43.990467,38.499999 -50.5,31.990467 -50.5,24 C -50.5,21.361541 -49.798011,18.882548 -48.5625,16.75 C -48.413028,16.481243 -48.147713,16.296676 -47.84375,16.25 L -47.84375,16.25 z"/><path style="opacity:.7;fill:none;fill-opacity:1;stroke:url(#linearGradient2860);stroke-width:1;stroke-linecap:square;stroke-linejoin:round;stroke-miterlimit:4;stroke-dashoffset:0;stroke-opacity:1" id="path2850" d="M -36,9.5 C -28.009532,9.4999996 -21.5,16.009533 -21.5,24 C -21.499999,26.63846 -22.201989,29.117452 -23.4375,31.25 C -23.588145,31.530147 -23.863618,31.721417 -24.178746,31.76467 C -24.493875,31.807922 -24.810695,31.697948 -25.03125,31.46875 L -43.46875,13.03125 C -43.697948,12.810695 -43.807922,12.493875 -43.76467,12.178746 C -43.721417,11.863618 -43.530147,11.588145 -43.25,11.4375 C -41.117452,10.201989 -38.638459,9.5 -36,9.5 z"/><g id="g1967" transform="translate(-64,7)"><path style="font-size:15.10630894px;font-style:normal;font-weight:700;fill:#729fcf;fill-opacity:1;stroke:#1a3e71;stroke-width:2;stroke-linecap:butt;stroke-linejoin:miter;stroke-miterlimit:4;stroke-dasharray:none;stroke-opacity:1;font-family:Bitstream Vera Sans Mono" id="path2949" d="M 40,1 L 47.000003,0.99999935 L 47.005991,3.0714286 L 43,7 L 47,7 L 47.000003,9.0000161 L 39.999984,9.0000161 L 39.999982,6.9285713 L 44,3 L 40.005989,3.0000007 L 40,1"/><path style="font-size:15.10630894px;font-style:normal;font-weight:700;fill:url(#linearGradient1979);fill-opacity:1;stroke:none;stroke-width:1px;stroke-linecap:butt;stroke-linejoin:miter;stroke-opacity:1;font-family:Bitstream Vera Sans Mono" id="text2933" d="M 40,1 L 47.000003,0.99999935 L 47.005991,3.0714286 L 43,7 L 47,7 L 47.000003,9.0000161 L 39.999984,9.0000161 L 39.999982,6.9285713 L 44,3 L 40.005989,3.0000007 L 40,1"/><g style="opacity:.5" id="g3008"><path style="opacity:1;fill:none;fill-rule:evenodd;stroke:#fff;stroke-width:1px;stroke-linecap:square;stroke-linejoin:miter;stroke-opacity:1" id="path2951" d="M 40.5,2.5 L 40.5,1.5 L 46.5,1.5"/><path style="opacity:1;fill:#fff;fill-opacity:1;fill-rule:evenodd;stroke:none;stroke-width:1px;stroke-linecap:round;stroke-linejoin:miter;stroke-opacity:1" id="path2953" d="M 43.0625,7 C 42.786358,7.0258883 42.583487,7.2707326 42.609375,7.546875 C 42.635263,7.8230174 42.880108,8.0258883 43.15625,8 L 47,8 L 47,7 L 43.15625,7 C 43.125069,6.9970641 43.093681,6.9970641 43.0625,7 z"/><path style="opacity:1;fill:#fff;fill-opacity:1;fill-rule:evenodd;stroke:none;stroke-width:1px;stroke-linecap:round;stroke-linejoin:miter;stroke-opacity:1" id="path2955" d="M 44.09375,3 C 44.007938,3.0311398 43.932288,3.0851759 43.875,3.15625 L 40.15625,6.78125 L 40,6.9375 L 40,7.15625 L 40,9 L 41,9 L 41,7.34375 L 44.5625,3.84375 C 44.724254,3.6862744 44.760437,3.4399497 44.650803,3.2426093 C 44.54117,3.0452688 44.31291,2.9458567 44.09375,3 L 44.09375,3 z"/></g></g></g></g></svg>