<svg xmlns="http://www.w3.org/2000/svg" xmlns:cc="http://web.resource.org/cc/" xmlns:svg="http://www.w3.org/2000/svg" xmlns:xlink="http://www.w3.org/1999/xlink" id="svg2" width="48" height="48" version="1.0"><defs id="defs4"><linearGradient id="linearGradient2241"><stop style="stop-color:#fff;stop-opacity:1" id="stop2243" offset="0"/><stop style="stop-color:#fff;stop-opacity:0" id="stop2245" offset="1"/></linearGradient><linearGradient id="linearGradient2233"><stop style="stop-color:#fff;stop-opacity:1" id="stop2235" offset="0"/><stop style="stop-color:#fff;stop-opacity:0" id="stop2237" offset="1"/></linearGradient><linearGradient id="linearGradient2321"><stop style="stop-color:#000;stop-opacity:1" id="stop2323" offset="0"/><stop style="stop-color:#000;stop-opacity:0" id="stop2325" offset="1"/></linearGradient><linearGradient id="linearGradient2309"><stop id="stop2311" offset="0" style="stop-color:#fff;stop-opacity:1"/><stop style="stop-color:#fff;stop-opacity:1" id="stop2313" offset=".571"/><stop id="stop2315" offset="1" style="stop-color:#babdb6"/></linearGradient><linearGradient id="linearGradient2289"><stop style="stop-color:#729fcf" id="stop2291" offset="0"/><stop style="stop-color:#3465a4" id="stop2293" offset="1"/></linearGradient><radialGradient id="radialGradient2279" cx="28.183" cy="22.521" r="9.264" fx="28.183" fy="22.521" gradientTransform="matrix(1.326257,-3.865595e-16,3.865595e-16,1.326257,-9.211537,-7.435688)" gradientUnits="userSpaceOnUse" xlink:href="#linearGradient2309"/><radialGradient id="radialGradient2285" cx="28.183" cy="21.876" r="9.264" fx="28.183" fy="21.876" gradientTransform="matrix(1.326257,-3.865595e-16,3.865595e-16,1.326257,-9.211537,-7.435688)" gradientUnits="userSpaceOnUse" xlink:href="#linearGradient2309"/><radialGradient id="radialGradient2295" cx="31.047" cy="23.273" r="3.5" fx="31.047" fy="23.273" gradientTransform="matrix(1.422277,-9.640309e-24,9.640309e-24,1.422277,-13.18722,-9.866261)" gradientUnits="userSpaceOnUse" xlink:href="#linearGradient2289"/><radialGradient id="radialGradient2307" cx="30.9" cy="23.157" r="3.607" fx="30.9" fy="23.157" gradientTransform="matrix(1.252897,2.391775e-15,-2.391775e-15,1.252897,-7.966263,-5.943085)" gradientUnits="userSpaceOnUse" xlink:href="#linearGradient2289"/><radialGradient id="radialGradient2327" cx="31.25" cy="25.25" r="8.75" fx="31.25" fy="25.25" gradientUnits="userSpaceOnUse" xlink:href="#linearGradient2321"/><radialGradient id="radialGradient2331" cx="31.25" cy="25.25" r="8.75" fx="31.25" fy="25.25" gradientUnits="userSpaceOnUse" xlink:href="#linearGradient2321"/><radialGradient id="radialGradient2344" cx="31.047" cy="23.273" r="3.5" fx="31.047" fy="23.273" gradientTransform="matrix(1.422277,-9.640309e-24,9.640309e-24,1.422277,-13.18722,-9.866261)" gradientUnits="userSpaceOnUse" xlink:href="#linearGradient2289"/><radialGradient id="radialGradient2221" cx="31.994" cy="24.501" r="3.5" fx="31.994" fy="24.501" gradientTransform="matrix(1.422277,-9.640309e-24,9.640309e-24,1.422277,-13.18722,-9.866261)" gradientUnits="userSpaceOnUse" xlink:href="#linearGradient2289"/><radialGradient id="radialGradient2223" cx="32.109" cy="24.239" r="3.607" fx="32.109" fy="24.239" gradientTransform="matrix(1.252897,2.391775e-15,-2.391775e-15,1.252897,-7.966263,-5.943085)" gradientUnits="userSpaceOnUse" xlink:href="#linearGradient2289"/><linearGradient id="linearGradient2239" x1="30.736" x2="30.693" y1="21.964" y2="25.231" gradientUnits="userSpaceOnUse" xlink:href="#linearGradient2233"/><linearGradient id="linearGradient2247" x1="30.588" x2="30.545" y1="22.022" y2="25.369" gradientUnits="userSpaceOnUse" xlink:href="#linearGradient2241"/><linearGradient id="linearGradient1350" x1="30.729" x2="30.729" y1="21.807" y2="23.552" gradientUnits="userSpaceOnUse" xlink:href="#linearGradient2233"/></defs><metadata id="metadata7"/><g id="layer2" style="display:inline"><g id="g2333" style="opacity:.6"><path id="path2329" d="M 40 25.25 A 8.75 8.75 0 1 1 22.5,25.25 A 8.75 8.75 0 1 1 40 25.25 z" transform="matrix(0.914287,0,0,0.457142,-10.57148,13.45716)" style="opacity:1;color:#000;fill:url(#radialGradient2331);fill-opacity:1;fill-rule:nonzero;stroke:none;stroke-width:1.02777779;stroke-linecap:square;stroke-linejoin:round;marker:none;marker-start:none;marker-mid:none;marker-end:none;stroke-miterlimit:4;stroke-dasharray:none;stroke-dashoffset:0;stroke-opacity:1;visibility:visible;display:inline;overflow:visible"/><path id="path2317" d="M 40 25.25 A 8.75 8.75 0 1 1 22.5,25.25 A 8.75 8.75 0 1 1 40 25.25 z" transform="matrix(1.142858,0,0,0.62857,-4.71431,13.62859)" style="opacity:1;color:#000;fill:url(#radialGradient2327);fill-opacity:1;fill-rule:nonzero;stroke:none;stroke-width:1.02777779;stroke-linecap:square;stroke-linejoin:round;marker:none;marker-start:none;marker-mid:none;marker-end:none;stroke-miterlimit:4;stroke-dasharray:none;stroke-dashoffset:0;stroke-opacity:1;visibility:visible;display:inline;overflow:visible"/></g><path style="color:#000;fill:url(#radialGradient2279);fill-opacity:1;fill-rule:nonzero;stroke:#888a85;stroke-width:1.34475732;stroke-linecap:square;stroke-linejoin:round;marker:none;marker-start:none;marker-mid:none;marker-end:none;stroke-miterlimit:4;stroke-dasharray:none;stroke-dashoffset:0;stroke-opacity:1;visibility:visible;display:inline;overflow:visible" id="path2263" d="M 40 25.25 A 8.75 8.75 0 1 1 22.5,25.25 A 8.75 8.75 0 1 1 40 25.25 z" transform="matrix(0.743628,0,0,0.743628,-5.240565,2.221213)"/><path style="color:#000;fill:none;fill-opacity:1;fill-rule:nonzero;stroke:#fff;stroke-width:1.58400083;stroke-linecap:square;stroke-linejoin:round;marker:none;marker-start:none;marker-mid:none;marker-end:none;stroke-miterlimit:4;stroke-dasharray:none;stroke-dashoffset:0;stroke-opacity:1;visibility:visible;display:inline;overflow:visible" id="path2267" d="M 40 25.25 A 8.75 8.75 0 1 1 22.5,25.25 A 8.75 8.75 0 1 1 40 25.25 z" transform="matrix(0.631312,0,0,0.631312,-1.72087,5.051724)"/><path style="opacity:1;color:#000;fill:url(#radialGradient2285);fill-opacity:1;fill-rule:nonzero;stroke:#888a85;stroke-width:1.02777779;stroke-linecap:square;stroke-linejoin:round;marker:none;marker-start:none;marker-mid:none;marker-end:none;stroke-miterlimit:4;stroke-dasharray:none;stroke-dashoffset:0;stroke-opacity:1;visibility:visible;display:inline;overflow:visible" id="path1360" d="M 40 25.25 A 8.75 8.75 0 1 1 22.5,25.25 A 8.75 8.75 0 1 1 40 25.25 z" transform="matrix(0.972973,0,0,0.972973,0.594595,0.432431)"/><path style="opacity:1;color:#000;fill:none;fill-opacity:1;fill-rule:nonzero;stroke:#fff;stroke-width:1.15579975;stroke-linecap:square;stroke-linejoin:round;marker:none;marker-start:none;marker-mid:none;marker-end:none;stroke-miterlimit:4;stroke-dasharray:none;stroke-dashoffset:0;stroke-opacity:1;visibility:visible;display:inline;overflow:visible" id="path2237" d="M 40 25.25 A 8.75 8.75 0 1 1 22.5,25.25 A 8.75 8.75 0 1 1 40 25.25 z" transform="matrix(0.865202,0,0,0.865202,3.962432,3.153654)"/><path style="color:#000;fill:url(#radialGradient2223);fill-opacity:1;fill-rule:nonzero;stroke:#3465a4;stroke-width:1.20236492;stroke-linecap:square;stroke-linejoin:round;marker:none;marker-start:none;marker-mid:none;marker-end:none;stroke-miterlimit:4;stroke-dasharray:none;stroke-dashoffset:0;stroke-opacity:1;visibility:visible;display:inline;overflow:visible" id="path2265" d="M 34.5 23.5 A 3 3 0 1 1 28.5,23.5 A 3 3 0 1 1 34.5 23.5 z" transform="matrix(0.831694,0,0,0.831694,-7.198356,0.455194)"/><path style="opacity:.3;color:#000;fill:none;fill-opacity:1;fill-rule:nonzero;stroke:#fff;stroke-width:1.98388267;stroke-linecap:square;stroke-linejoin:round;marker:none;marker-start:none;marker-mid:none;marker-end:none;stroke-miterlimit:4;stroke-dasharray:none;stroke-dashoffset:0;stroke-opacity:1;visibility:visible;display:inline;overflow:visible" id="path2346" d="M 34.5 23.5 A 3 3 0 1 1 28.5,23.5 A 3 3 0 1 1 34.5 23.5 z" transform="matrix(0.504064,0,0,0.504061,3.129616,8.162169)"/><path style="opacity:1;color:#000;fill:#000;fill-opacity:1;fill-rule:nonzero;stroke:none;stroke-width:1;stroke-linecap:square;stroke-linejoin:round;marker:none;marker-start:none;marker-mid:none;marker-end:none;stroke-miterlimit:4;stroke-dasharray:none;stroke-dashoffset:0;stroke-opacity:1;visibility:visible;display:inline;overflow:visible" id="path2213" d="M 32.53125 23.5 A 1 1 0 1 1 30.53125,23.5 A 1 1 0 1 1 32.53125 23.5 z" transform="matrix(0.999998,0,0,1,-12.53119,-3.5)"/><path style="color:#000;fill:url(#linearGradient2247);fill-opacity:1;fill-rule:nonzero;stroke:none;stroke-width:1;stroke-linecap:square;stroke-linejoin:round;marker:none;marker-start:none;marker-mid:none;marker-end:none;stroke-miterlimit:4;stroke-dasharray:none;stroke-dashoffset:0;stroke-opacity:1;visibility:visible;display:inline;overflow:visible" id="path2283" d="M 31.908194 22.610447 A 1.2153398 1.3921164 0 1 1 29.477514,22.610447 A 1.2153398 1.3921164 0 1 1 31.908194 22.610447 z" transform="matrix(1.028521,0,0,0.897913,-13.31824,-1.052221)"/><path style="color:#000;fill:url(#radialGradient2221);fill-opacity:1;fill-rule:nonzero;stroke:#3465a4;stroke-width:1;stroke-linecap:square;stroke-linejoin:round;marker:none;marker-start:none;marker-mid:none;marker-end:none;stroke-miterlimit:4;stroke-dasharray:none;stroke-dashoffset:0;stroke-opacity:1;visibility:visible;display:inline;overflow:visible" id="path2235" d="M 34.5 23.5 A 3 3 0 1 1 28.5,23.5 A 3 3 0 1 1 34.5 23.5 z"/><path style="opacity:.3;color:#000;fill:none;fill-opacity:1;fill-rule:nonzero;stroke:#fff;stroke-width:1.48871851;stroke-linecap:square;stroke-linejoin:round;marker:none;marker-start:none;marker-mid:none;marker-end:none;stroke-miterlimit:4;stroke-dasharray:none;stroke-dashoffset:0;stroke-opacity:1;visibility:visible;display:inline;overflow:visible" id="path2337" d="M 34.5 23.5 A 3 3 0 1 1 28.5,23.5 A 3 3 0 1 1 34.5 23.5 z" transform="matrix(0.671445,0,0,0.671993,10.35376,7.701993)"/><path style="opacity:1;color:#000;fill:#000;fill-opacity:1;fill-rule:nonzero;stroke:none;stroke-width:1;stroke-linecap:square;stroke-linejoin:round;marker:none;marker-start:none;marker-mid:none;marker-end:none;stroke-miterlimit:4;stroke-dasharray:none;stroke-dashoffset:0;stroke-opacity:1;visibility:visible;display:inline;overflow:visible" id="path1338" d="M 32.53125 23.5 A 1 1 0 1 1 30.53125,23.5 A 1 1 0 1 1 32.53125 23.5 z" transform="matrix(1.499997,0,0,1.5,-15.79679,-11.75)"/><path style="color:#000;fill:url(#linearGradient2239);fill-opacity:1;fill-rule:nonzero;stroke:none;stroke-width:1;stroke-linecap:square;stroke-linejoin:round;marker:none;marker-start:none;marker-mid:none;marker-end:none;stroke-miterlimit:4;stroke-dasharray:none;stroke-dashoffset:0;stroke-opacity:1;visibility:visible;display:inline;overflow:visible" id="path2281" d="M 31.908194 22.610447 A 1.2153398 1.3921164 0 1 1 29.477514,22.610447 A 1.2153398 1.3921164 0 1 1 31.908194 22.610447 z" transform="matrix(1.439923,0,0,1.257079,-13.44535,-6.173128)"/></g></svg>